<?xml version="1.0" standalone="no"?><!DOCTYPE svg PUBLIC "-//W3C//DTD SVG 1.1//EN"
        "http://www.w3.org/Graphics/SVG/1.1/DTD/svg11.dtd">
<svg t="1686374508997" class="icon" viewBox="0 0 1024 1024" version="1.1" xmlns="http://www.w3.org/2000/svg"
     p-id="20410" width="13" height="13" xmlns:xlink="http://www.w3.org/1999/xlink">
    <path d="M819.2 43.52H204.8c-42.496 0-76.8 34.304-76.8 76.8v817.152c0 34.304 37.376 54.784 66.56 36.352l317.44-201.728 317.44 201.728c28.672 18.432 66.56-2.56 66.56-36.352V119.808c0-41.984-34.304-76.288-76.8-76.288z m-63.488 352.768l-94.208 88.576 23.552 128c2.56 14.848-3.584 28.16-14.848 36.352-6.144 4.608-13.312 7.168-21.504 7.168-5.632 0-11.776-1.536-17.408-4.608l-118.784-59.392-119.808 59.392c-11.776 6.656-27.648 5.632-38.4-2.56-11.264-8.192-17.408-23.04-14.848-36.352l24.576-128-93.184-87.552c-9.728-9.728-13.824-25.6-9.728-38.4 4.608-13.824 15.36-23.552 30.208-25.6l130.56-23.552 58.368-118.784c6.656-12.8 19.456-20.992 33.28-20.992s27.648 8.192 33.28 20.992l58.368 118.784 130.56 23.04c13.824 1.536 25.6 11.776 29.184 25.6 4.608 13.312 1.024 28.16-9.216 37.888z"
          fill="#F7C777" p-id="20411"></path>
</svg>