<?xml version="1.0" standalone="no"?><!DOCTYPE svg PUBLIC "-//W3C//DTD SVG 1.1//EN" "http://www.w3.org/Graphics/SVG/1.1/DTD/svg11.dtd"><svg t="1685123596542" class="icon" viewBox="0 0 1024 1024" version="1.1" xmlns="http://www.w3.org/2000/svg" p-id="4419" width="16" height="16" xmlns:xlink="http://www.w3.org/1999/xlink"><path d="M277.1 410.9l-54.3 55c-5.8 5.9-13.7 9.2-21.9 9.2s-16.1-3.3-21.9-9.2l-95.3-96.5c-12.2-12.3-12.2-32.2 0-44.5l157.1-158.3c0.7-0.8 1.8-1.1 2.6-1.7 0.7-0.9 1-1.9 1.8-2.6C328.5 76.9 455.6 51 565.9 96.9h0.1l1.9 0.7c2.2 0.9 3.8 2.5 5.7 3.8 1.1 0.7 2.2 1.2 3.1 2 2.3 2.2 4.2 4.8 5.7 7.7 0.4 0.7 0.9 1.2 1.3 1.9 1.7 3.6 2.8 7.5 3 11.5v0.1c0.2 4.2-0.3 8.4-1.8 12.3h0.1c-0.2 0.5-0.1 1.1-0.4 1.7-1.3 2.9-3.1 5.6-5.2 7.9-0.2 0.2-0.3 0.6-0.6 0.9-2.3 2.6-5.1 4.8-8.2 6.4-0.5 0.2-0.9 0.6-1.3 0.9-3.2 1.5-6.6 2.4-10.1 2.7-0.5 0-1 0.3-1.6 0.3-38.2 2.5-74.6 17.4-103.6 42.4-4.2 3.7-8.6 7.2-12.6 11.2-17.2 17.4-31.7 37.3-43.1 58.9l-0.2 0.9c-2.9 5.8-3.1 12.6-0.5 18.6l514.3 508.1c5.9 5.9 9.2 13.8 9.2 22.1s-3.3 16.3-9.2 22.1l-76.8 77c-5.9 5.9-13.8 9.2-22.1 9.2h-0.1c-8.3 0-16.2-3.3-22.1-9.2L277.1 410.9z" fill="#FFCF41" p-id="4420"></path><path d="M291.9 949.5c-28 0-55.6-6.2-81-18-9.2-4.4-15.7-12.9-17.5-23-1.8-10 1.5-20.3 8.7-27.6l86.3-86.4-32.4-32.3-85.8 85.8c-7.3 7.3-17.7 10.6-27.8 8.8-10.2-1.9-18.7-8.6-22.9-18.1-32-71.4-16.8-155.2 38.2-210.8 50-49.2 123.1-67 190.1-46.1l234-233.9c-21-67-3.3-140.1 46.1-190 35.2-35.3 83-55.1 132.8-54.9 26.7 0 53.7 5.8 78.1 16.8 9.4 4.2 16.2 12.8 18 22.9 1.8 10.2-1.4 20.6-8.8 27.8l-87 87 32.4 32.4 87.6-87.6c7.2-7.2 17.5-10.5 27.5-8.7 10.1 1.7 18.6 8.3 23 17.5 33.9 71.8 19.2 157.2-36.7 213.6-35.1 35.3-82.9 55-132.6 54.9-20.3 0-40.7-3.4-60-9.8L469.6 702.1c22.2 67.1 5.4 142.1-45.1 192.6-35.1 35.2-82.9 55-132.6 54.8z" fill="#232426" p-id="4421"></path><path d="M286.3 885.3c35.3 2.1 69.8-11.1 94.7-36.1 37-37 46.8-94.1 24.2-142-5.6-11.9-3.1-26 6.2-35.3l260.5-260.5c9.3-9.3 23.3-11.8 35.3-6.3 47.8 22 104.2 12.4 142-24.2 25.3-25.3 37.8-60 36.1-94.7l-70.8 70.9c-5.9 5.9-13.8 9.2-22.1 9.2s-16.2-3.3-22.1-9.2L694 280.6c-12.2-12.2-12.2-32 0-44.2l69.3-69.3c-34.2-1-67.3 12.2-91.5 36.3-37 36.8-47 92.8-25.2 140.2 5.4 11.9 2.8 25.8-6.4 35L378.6 640c-9.2 9.1-23 11.6-34.9 6.4-47.5-21-103-11-140.2 25.2-24.3 24.2-37.5 57.4-36.5 91.7l68.3-68.3c5.8-5.9 13.8-9.2 22.1-9.2s16.2 3.3 22.1 9.2l76.5 76.5c5.9 5.8 9.2 13.8 9.2 22.1s-3.3 16.2-9.2 22.1l-69.7 69.6z" fill="#FFFFFF" p-id="4422"></path></svg>